<svg xmlns="http://www.w3.org/2000/svg" viewBox="0 0 19 19" width="19" height="19">
	<style>
		tspan { white-space:pre }
		.shp0 { fill: #ff52c1 } 
	</style>
	<path id="Layer" class="shp0" d="M18.41 4.06C18.24 4.14 18.07 4.2 17.9 4.26C17.73 4.32 17.55 4.38 17.38 4.42C17.2 4.47 17.03 4.51 16.85 4.55C16.67 4.58 16.49 4.61 16.31 4.63C16.5 4.52 16.67 4.39 16.84 4.25C17 4.11 17.16 3.95 17.29 3.78C17.43 3.61 17.55 3.43 17.66 3.24C17.76 3.05 17.85 2.85 17.92 2.64C17.74 2.75 17.55 2.84 17.37 2.93C17.18 3.02 16.99 3.1 16.79 3.18C16.6 3.25 16.4 3.31 16.2 3.37C16 3.43 15.8 3.48 15.59 3.51C15.42 3.33 15.23 3.17 15.03 3.03C14.82 2.89 14.61 2.77 14.38 2.67C14.15 2.57 13.91 2.5 13.67 2.45C13.42 2.4 13.17 2.37 12.93 2.38C10.91 2.38 9.27 3.99 9.27 5.97C9.27 6.04 9.27 6.11 9.28 6.18C9.28 6.25 9.29 6.32 9.29 6.38C9.3 6.45 9.31 6.52 9.32 6.59C9.34 6.66 9.35 6.72 9.37 6.79C8.64 6.76 7.93 6.65 7.23 6.47C6.53 6.28 5.85 6.03 5.2 5.71C4.56 5.38 3.94 4.99 3.38 4.55C2.81 4.1 2.29 3.59 1.83 3.03C1.75 3.17 1.68 3.31 1.62 3.45C1.56 3.6 1.5 3.75 1.46 3.9C1.42 4.05 1.39 4.21 1.37 4.37C1.35 4.52 1.34 4.68 1.34 4.84C1.34 6.09 1.99 7.19 2.97 7.83C2.82 7.83 2.68 7.82 2.54 7.8C2.39 7.78 2.25 7.75 2.11 7.71C1.97 7.67 1.83 7.63 1.7 7.57C1.56 7.52 1.43 7.45 1.31 7.38L1.31 7.43C1.31 9.17 2.57 10.62 4.24 10.95C4.16 10.98 4.08 10.99 4 11.01C3.92 11.03 3.84 11.04 3.76 11.05C3.68 11.06 3.6 11.07 3.52 11.07C3.44 11.08 3.36 11.08 3.28 11.08C3.22 11.08 3.16 11.08 3.1 11.08C3.05 11.07 2.99 11.07 2.93 11.06C2.87 11.06 2.82 11.05 2.76 11.04C2.7 11.04 2.65 11.03 2.59 11.01C3.05 12.44 4.4 13.48 6.01 13.51C5.68 13.76 5.34 13.98 4.98 14.17C4.62 14.37 4.25 14.53 3.86 14.66C3.48 14.79 3.08 14.89 2.68 14.95C2.28 15.02 1.87 15.05 1.47 15.05C1.39 15.05 1.32 15.05 1.25 15.05C1.17 15.05 1.1 15.04 1.03 15.04C0.96 15.03 0.88 15.03 0.81 15.02C0.74 15.02 0.67 15.01 0.59 15C1.01 15.26 1.44 15.5 1.89 15.7C2.34 15.91 2.8 16.08 3.27 16.21C3.75 16.35 4.23 16.46 4.72 16.52C5.2 16.59 5.7 16.63 6.19 16.63C12.92 16.63 16.59 11.14 16.59 6.39C16.59 6.23 16.59 6.08 16.58 5.93C16.76 5.8 16.93 5.67 17.1 5.52C17.27 5.38 17.43 5.23 17.58 5.08C17.73 4.92 17.88 4.76 18.01 4.59C18.15 4.42 18.28 4.24 18.41 4.06L18.41 4.06Z" />
</svg>