<svg xmlns="http://www.w3.org/2000/svg" viewBox="0 0 512 512" width="512" height="512">
	<style>
		tspan { white-space:pre }
		.shp0 { fill: #ffffff } 
	</style>
	<path id="Layer" fill-rule="evenodd" class="shp0" d="M349.33 32C421.2 32 480 90.8 480 162.67L480 349.33C480 421.2 421.2 480 349.33 480L162.67 480C90.8 480 32 421.2 32 349.33L32 162.67C32 90.8 90.8 32 162.67 32L349.33 32ZM349.33 69.33L162.67 69.33C150.42 69.37 138.3 71.81 126.99 76.51C115.69 81.21 105.41 88.09 96.75 96.75C88.09 105.41 81.21 115.69 76.51 126.99C71.81 138.3 69.37 150.42 69.33 162.67L69.33 349.33C69.37 361.58 71.81 373.7 76.51 385.01C81.21 396.31 88.09 406.59 96.75 415.25C105.41 423.91 115.69 430.79 126.99 435.49C138.3 440.19 150.42 442.63 162.67 442.67L349.33 442.67C361.58 442.63 373.7 440.19 385.01 435.49C396.31 430.79 406.59 423.91 415.25 415.25C423.91 406.59 430.79 396.31 435.49 385.01C440.19 373.7 442.63 361.58 442.67 349.33L442.67 162.67C442.63 150.42 440.19 138.3 435.49 126.99C430.79 115.69 423.91 105.41 415.25 96.75C406.59 88.09 396.31 81.21 385.01 76.51C373.7 71.81 361.58 69.37 349.33 69.33Z" />
	<path id="Layer" fill-rule="evenodd" class="shp0" d="M351.46 145.39C347.13 134.92 349.52 122.88 357.53 114.87C365.54 106.86 377.58 104.47 388.05 108.8C398.51 113.14 405.33 123.35 405.33 134.67C405.34 138.35 404.62 141.99 403.21 145.39C401.81 148.8 399.75 151.89 397.15 154.49C394.55 157.09 391.46 159.15 388.05 160.55C384.65 161.96 381.01 162.68 377.33 162.67C366.01 162.67 355.8 155.85 351.46 145.39ZM256 144C270.71 144 285.27 146.9 298.86 152.53C312.45 158.15 324.8 166.4 335.2 176.8C345.6 187.2 353.85 199.55 359.47 213.14C365.1 226.73 368 241.29 368 256C368 301.3 340.71 342.14 298.86 359.47C257.01 376.81 208.84 367.23 176.8 335.2C144.77 303.16 135.19 254.99 152.53 213.14C169.86 171.29 210.7 144 256 144ZM256 181.33C246.2 181.34 236.49 183.28 227.44 187.04C218.38 190.79 210.16 196.29 203.22 203.22C196.29 210.16 190.79 218.38 187.04 227.44C183.28 236.49 181.34 246.2 181.33 256C181.33 286.2 199.52 313.43 227.43 324.99C255.33 336.54 287.44 330.16 308.8 308.8C330.16 287.44 336.54 255.33 324.99 227.43C313.43 199.52 286.2 181.33 256 181.33Z" />
</svg>