<svg xmlns="http://www.w3.org/2000/svg" viewBox="0 0 512 512" width="512" height="512">
	<style>
		tspan { white-space:pre }
		.shp0 { fill: #ffffff } 
	</style>
	<path id="Layer" fill-rule="evenodd" class="shp0" d="M480 257.35C480 133.65 379.7 33.35 256 33.35C132.3 33.35 32 133.65 32 257.35C32 369.15 113.9 461.82 221 478.64L221 322.12L164.11 322.12L164.11 257.35L221 257.35L221 208C221 151.87 254.45 120.84 305.61 120.84C330.12 120.84 355.76 125.22 355.76 125.22L355.76 180.35L327.5 180.35C299.69 180.35 290.99 197.61 290.99 215.35L290.99 257.35L353.11 257.35L343.19 322.12L291 322.12L291 478.66C398.1 461.85 480 369.18 480 257.35L480 257.35Z" />
</svg>