<svg xmlns="http://www.w3.org/2000/svg" viewBox="0 0 512 512" width="512" height="512">
	<style>
		tspan { white-space:pre }
		.shp0 { fill: #ffffff } 
	</style>
	<path id="Layer" class="shp0" d="M496 109.5C491.51 111.45 486.94 113.24 482.32 114.86C477.69 116.48 473.01 117.93 468.28 119.21C463.55 120.49 458.78 121.6 453.97 122.53C449.16 123.46 444.32 124.22 439.45 124.8C444.52 121.83 449.31 118.41 453.76 114.58C458.22 110.75 462.32 106.52 466.01 101.96C469.7 97.39 472.97 92.49 475.79 87.34C478.6 82.18 480.94 76.78 482.78 71.2C477.95 74.03 473 76.64 467.95 79.05C462.89 81.45 457.74 83.64 452.5 85.61C447.26 87.58 441.94 89.32 436.55 90.84C431.17 92.36 425.72 93.65 420.22 94.7C415.59 89.85 410.48 85.48 404.98 81.66C399.47 77.84 393.58 74.59 387.42 71.96C381.25 69.33 374.84 67.33 368.27 65.99C361.7 64.66 355.01 63.99 348.31 64C293.89 64 249.85 107.4 249.85 160.9C249.84 162.76 249.89 164.62 249.99 166.47C250.09 168.33 250.25 170.18 250.46 172.03C250.67 173.87 250.94 175.71 251.26 177.54C251.58 179.37 251.96 181.19 252.39 183C232.93 182.09 213.62 179.15 194.77 174.24C175.92 169.33 157.63 162.47 140.2 153.77C122.77 145.07 106.29 134.59 91.03 122.48C75.78 110.37 61.82 96.7 49.39 81.7C47.22 85.36 45.29 89.17 43.62 93.09C41.96 97.01 40.55 101.04 39.42 105.15C38.29 109.26 37.44 113.44 36.87 117.66C36.3 121.88 36.01 126.14 36 130.4C36 164 53.53 193.7 80 211.1C76.1 211.01 72.2 210.68 68.34 210.12C64.48 209.56 60.65 208.77 56.88 207.75C53.11 206.73 49.41 205.49 45.79 204.03C42.17 202.56 38.64 200.89 35.22 199L35.22 200.2C35.22 247.2 69.22 286.3 114.22 295.2C112.11 295.76 109.98 296.26 107.83 296.68C105.69 297.11 103.53 297.46 101.36 297.75C99.19 298.03 97.02 298.24 94.83 298.39C92.65 298.53 90.47 298.6 88.28 298.6C86.73 298.6 85.18 298.57 83.62 298.49C82.07 298.42 80.53 298.31 78.98 298.16C77.44 298.01 75.89 297.82 74.36 297.59C72.82 297.37 71.29 297.1 69.77 296.8C82.28 335.3 118.69 363.3 161.82 364.1C153.13 370.79 143.91 376.76 134.24 381.94C124.57 387.12 114.5 391.5 104.11 395.02C93.72 398.54 83.07 401.2 72.24 402.98C61.42 404.75 50.47 405.63 39.5 405.6C37.54 405.6 35.57 405.57 33.61 405.51C31.65 405.45 29.69 405.36 27.73 405.24C25.77 405.12 23.81 404.98 21.86 404.81C19.9 404.63 17.95 404.43 16 404.2C27.18 411.34 38.86 417.67 50.94 423.15C63.02 428.62 75.48 433.23 88.22 436.93C100.96 440.63 113.95 443.42 127.09 445.27C140.22 447.12 153.47 448.04 166.74 448C348.1 448 447.18 300.3 447.18 172.2C447.18 168 447.07 163.8 446.87 159.7C451.67 156.29 456.31 152.67 460.78 148.84C465.26 145.02 469.56 141 473.67 136.79C477.79 132.58 481.72 128.2 485.44 123.64C489.17 119.09 492.69 114.37 496 109.5L496 109.5Z" />
</svg>