<svg xmlns="http://www.w3.org/2000/svg" viewBox="0 0 19 19" width="19" height="19">
	<style>
		tspan { white-space:pre }
		.shp0 { fill: #ff52c1 } 
	</style>
	<path id="Layer" fill-rule="evenodd" class="shp0" d="M12.96 1.19C15.63 1.19 17.81 3.37 17.81 6.04L17.81 12.96C17.81 15.63 15.63 17.81 12.96 17.81L6.04 17.81C3.37 17.81 1.19 15.63 1.19 12.96L1.19 6.04C1.19 3.37 3.37 1.19 6.04 1.19L12.96 1.19ZM12.96 2.57L6.04 2.57C5.58 2.57 5.13 2.66 4.71 2.84C4.29 3.01 3.91 3.27 3.59 3.59C3.27 3.91 3.01 4.29 2.84 4.71C2.66 5.13 2.57 5.58 2.57 6.04L2.57 12.96C2.57 13.42 2.66 13.87 2.84 14.29C3.01 14.71 3.27 15.09 3.59 15.41C3.91 15.73 4.29 15.99 4.71 16.16C5.13 16.34 5.58 16.43 6.04 16.43L12.96 16.43C13.42 16.43 13.87 16.34 14.29 16.16C14.71 15.99 15.09 15.73 15.41 15.41C15.73 15.09 15.99 14.71 16.16 14.29C16.34 13.87 16.43 13.42 16.43 12.96L16.43 6.04C16.43 5.58 16.34 5.13 16.16 4.71C15.99 4.29 15.73 3.91 15.41 3.59C15.09 3.27 14.71 3.01 14.29 2.84C13.87 2.66 13.42 2.57 12.96 2.57Z" />
	<path id="Layer" fill-rule="evenodd" class="shp0" d="M13.04 5.4C12.88 5.01 12.97 4.56 13.27 4.26C13.56 3.97 14.01 3.88 14.4 4.04C14.79 4.2 15.04 4.58 15.04 5C15.04 5.13 15.02 5.27 14.96 5.4C14.91 5.52 14.83 5.64 14.74 5.73C14.64 5.83 14.53 5.91 14.4 5.96C14.27 6.01 14.14 6.04 14 6.04C13.58 6.04 13.2 5.78 13.04 5.4ZM9.5 5.34C10.05 5.34 10.59 5.45 11.09 5.66C11.59 5.87 12.05 6.17 12.44 6.56C12.83 6.95 13.13 7.41 13.34 7.91C13.55 8.41 13.66 8.95 13.66 9.5C13.66 11.18 12.64 12.7 11.09 13.34C9.54 13.98 7.75 13.63 6.56 12.44C5.37 11.25 5.02 9.46 5.66 7.91C6.3 6.36 7.82 5.34 9.5 5.34ZM9.5 6.73C9.14 6.73 8.78 6.8 8.44 6.94C8.1 7.08 7.8 7.28 7.54 7.54C7.28 7.8 7.08 8.1 6.94 8.44C6.8 8.78 6.73 9.14 6.73 9.5C6.73 10.62 7.4 11.63 8.44 12.06C9.48 12.49 10.67 12.25 11.46 11.46C12.25 10.67 12.49 9.48 12.06 8.44C11.63 7.4 10.62 6.73 9.5 6.73Z" />
</svg>