<svg xmlns="http://www.w3.org/2000/svg" viewBox="0 0 19 19" width="19" height="19">
	<style>
		tspan { white-space:pre }
		.shp0 { fill: #ff52c1 } 
	</style>
	<path id="Layer" fill-rule="evenodd" class="shp0" d="M17.81 9.55C17.81 4.96 14.09 1.24 9.5 1.24C4.91 1.24 1.19 4.96 1.19 9.55C1.19 13.7 4.23 17.14 8.2 17.76L8.2 11.95L6.09 11.95L6.09 9.55L8.2 9.55L8.2 7.72C8.2 5.64 9.44 4.48 11.34 4.48C12.25 4.48 13.2 4.65 13.2 4.65L13.2 6.69L12.15 6.69C11.12 6.69 10.8 7.33 10.8 7.99L10.8 9.55L13.1 9.55L12.74 11.95L10.8 11.95L10.8 17.76C14.77 17.14 17.81 13.7 17.81 9.55L17.81 9.55Z" />
</svg>